<svg id="Layer_2" data-name="Layer 2" xmlns="http://www.w3.org/2000/svg" viewBox="0 0 700 468"><defs><style>.cls-1{fill:#c2db62;}.cls-2{fill:#0048d3;}</style></defs><title>family</title><path class="cls-1" d="M682.22,324c-15.75-4.56-31.47-8.29-47-13.83A420.31,420.31,0,0,0,585,295.45c-16.6-3.7-33.45-7-49.43-12.92a141.15,141.15,0,0,1-21.13-9.76c-4.16-2.4-8-5.21-11.92-8a1.74,1.74,0,0,0-.42-1.35c-5.23-6.58-9-12.82-11.37-21-2.16-7.43-3.53-15.09-6.07-22.41-2.92-8.4-8-14.89-13-22.12-6.32-9.17-6.39-18.65-7.93-29.29-2.61-18.1-14.34-33.1-18.58-50.76-2.15-8.94-.64-17.55-7.29-24.79-3.81-4.14-8.11-7.89-12.25-11.68a94,94,0,0,0-8.78-7.7Q413.54,59,410.91,44.24c-1.07-6-2.37-11.94-9.43-12.64-5.37-.54-10.36,2.5-13.51,6.67A22.45,22.45,0,0,0,384,48c-3.23-3-6.81-5.68-10.24-8.4-2.51-2-5.46-5-8.71-5.75-7.06-1.66-11.69,8.37-12.92,13.81C350.21,56,356,61.42,361.65,66.55a152,152,0,0,1,21,23.53,3,3,0,0,0,.66.65,48,48,0,0,0-3.87,9.94,115,115,0,0,1-23.69,3.23c-5.53.19-10.3.74-14.06,5.22-4.16,5-6.86,12.05-9.22,18a47.45,47.45,0,0,0-2.51,6.61c-1.54-5.49-3.66-10.92-5.72-16.18-1.93-4.93-3.57-9.74-8.77-11.94-5.63-2.38-11.69-3.33-17.26-6.08S288,92.29,282.49,89.63c-4.61-2.21-9.53-1.06-14.11.59-5.35,1.93-10.3,4.64-15.37,7.17a72,72,0,0,1-15.18,5.5c-.22-5.36-.55-10.62,3.55-14.71,7-6.93,16.47-10.88,22.27-19.05,3.69-5.2,8.58-19.28-.44-22-4.24-1.26-8.52,1.4-12.18,3.19-5.33,2.61-10.86,5-16,8.08-2.79-7.35-9-5.87-14.61-1.38q-7.07,5.7-14,11.61a59.05,59.05,0,0,0-7.54,7.14c-1.53-6-5-10.14-12.28-8.74-15.57,3-14.31,27.5-14.15,39,.25,18-.3,36.5,1.65,54.46-2.15,7.46-3,15.65-4.68,23.18C167.68,191.76,166,200,165,208.19a102.94,102.94,0,0,0-.39,23.19l0,.37h-.11c-3.79.67-5.9,3.91-8.85,6.17a51.8,51.8,0,0,1-11.42,6.4c-7.56,3.19-15.6,5-23.59,6.78-14,3.07-33.89,6.52-42.78,19.14-1.47,2.09,1.57,3.93,3.36,3,8.18-4.34,15.27-8.64,24.37-11,8.21-2.17,16.57-3.63,24.83-5.55,7.79-1.82,15.63-4.1,22.76-7.8,3.34-1.73,9.22-4.77,12.56-8.54.89,4.59,2.5,9.05,5.9,11.6,1.54,1.16,5,1.19,5.39-1.29.6-3.38-.31-5.79-1.25-9.08a63.91,63.91,0,0,1-2.21-12.09,115.62,115.62,0,0,1,.7-23.19c.95-8.28,2.53-16.46,3.68-24.72,1-7.56,2.81-15.86,1.49-23.45a1.79,1.79,0,0,0-.34-.79c.73-12.36.27-24.93.11-37.24-.1-7.68-.38-15.39-.27-23.07.1-7,.53-15.68,5.23-21.35,2-2.4,4.45-4.72,7.62-.07.86,1.26.87,3.55,1.08,5a53.66,53.66,0,0,1,.14,11.7c-.56,7.18-2,14.27-2.24,21.47-.24,6.74.8,13.38,2,20,1.3,7.28,1.78,14.8,3.47,22,.52,2.22,4.44,2.19,5,0,1.94-8.32-.95-17.32-2.35-25.56a92.56,92.56,0,0,1-.35-27.67c.52-4.24,1.78-12.75,1.27-20.39a2.58,2.58,0,0,0,.9-.67c4.51-5.26,10.71-9.1,16.11-13.37,2.52-2,5-4,7.52-6,.72-.58,2.76-2.94,3.88-2.47.76.32,1,4.11,1.13,4.77a23.84,23.84,0,0,1-4.76,17.86c-4,5.1-9.39,6.68-15,9.33-2.88,1.36-1.12,5,1.55,5,.26,0,.51,0,.76,0-.6,5.23-.23,10.5,0,15.77.28,6-.61,13.59,1.92,19.1,1,2.26,4.67,2.65,5.55,0,1.93-5.81.21-13.09-.21-19.11-.38-5.5-.58-11.13-1.91-16.5,12.86-3.62,20.61-19.43,18.91-32.4,4.25-1.44,8.33-3.32,12.43-5.15,2.58-1.15,5.15-2.37,7.76-3.46s4.17-2.52,4.45,1.06c.74,9.59-9.61,16.15-16.29,20.88-5.77,4.09-13.33,8.92-14.28,16.57-.66,5.27-.19,10.9-.12,16.21a96.08,96.08,0,0,0,1.07,16c.46,2.52,5.18,2.5,5.63,0,1.05-5.89,1-11.9,1-17.88,7.34.06,14.33-3.19,20.91-6.24,4.5-2.09,9.13-4.75,14-6,4.36-1.08,6.26-.29,9.86,2.16,1.81,1.23,3.53,2.56,5.38,3.74A73.24,73.24,0,0,0,301.55,108c4.92,1.86,11.78,2.15,14.16,7.34s3.67,10.69,5.83,15.84c2.56,6.11,4.32,10.1,2.55,11.7a2.49,2.49,0,0,0-.45.38c-2.31,2.56-8.55-2.34-10.38-3.95-3.51-3.08-5.24-7.43-8.49-10.61s-8.35-3.79-12.28-5.44c-4.94-2.08-9.49-5-14.42-7l-.29-.1c.09-.17.18-.33.26-.5.92-2.06-1.93-3.78-3.65-3.23-4,1.26-6.91,4.43-10.73,6.17a46.17,46.17,0,0,1-13.26,3.62c-2.75.35-1.66,3.81.62,4a34,34,0,0,0,10.31-.58c-5.16,14.12-1.84,27.86,13.22,33.22a43.79,43.79,0,0,0,11.21,2.38c-2.33,4-2.88,9.23,0,12.49,1.25,1.42,4,.62,4.48-1.07.75-2.4.07-5,.59-7.46a27.73,27.73,0,0,1,1.25-4,28.51,28.51,0,0,0,8.55-2,11.72,11.72,0,0,0,.38,3.91c1,3.79,4.33,9.68,9.05,8.21a2.6,2.6,0,0,0,1.9-1.7c.71-3.21-2.49-5.1-3.66-7.82a21.45,21.45,0,0,1-1.7-6.39,19.85,19.85,0,0,0,5-7.27,3.1,3.1,0,0,0,.16-.55,25.43,25.43,0,0,0,7.84,3.83,2,2,0,0,0,.12.38,19.73,19.73,0,0,0,3.77,5c.6.67,1.19,1.63,2.08,1.94a17.09,17.09,0,0,1-.83,11.47c-2.45,5.13-7.19,8.87-10.9,13-7.34,8.27-10.07,18.59-14,28.67-4.22,10.87-11.4,17.91-20.74,24.54-4.63,3.29-10.13,6.5-14.39,10.64.09-.57.18-1.15.26-1.72a81,81,0,0,0-4.11-37.28c-3.68-10.17-11.45-25.11-22.67-28.3a4.23,4.23,0,0,0-5.08,5.93c2,4.09,6.24,7.14,9,10.74A64,64,0,0,1,250.11,210a75.89,75.89,0,0,1,6.53,29.92c.09,10.38-2.89,22.29-12.72,27.65-5.43,3-12,2.33-18,2.23a138.26,138.26,0,0,0-18.6,1c-1.37.16-2,2-.35,2.39a122.18,122.18,0,0,0,22.07,3.1c1.15.07,2.3.13,3.45.17-2.65,2.95-5,6.23-7.39,9q-7.17,8.3-14.22,16.69-15.18,18.09-29.75,36.68c-9.44,12-18.31,24.7-29.68,35-10.85,9.84-23.55,17.38-35.4,25.92-1.3.93.48,2.36,1.61,1.85,13.19-6,25.77-13.12,36.95-22.42,11.67-9.7,20.66-22.11,30.07-33.9q15.09-18.91,30.78-37.33,7.88-9.25,15.92-18.37c3.74-4.24,9.22-8.79,12-14.08a22.86,22.86,0,0,0,3.83-1.39c7.7-3.63,12.53-10.42,15.28-18.09,4.07-2.85,7.91-6,12-8.83,4.68-3.22,9.56-6.12,14.17-9.45,10.36-7.47,15.88-17,20.14-28.87,2.25-6.25,4.36-12.64,8.26-18.1,3.65-5.1,8.74-9,12.41-14.07a24.23,24.23,0,0,0,3.18-6.08c1.16,1.62,2.46,3.09,3.37,4.15A31.32,31.32,0,0,0,349.18,184a21.57,21.57,0,0,0,5.65,1h0c4.76,7.77,9,16.18,10.73,25.19a54.29,54.29,0,0,1,.72,15.12c-.47,5.13-1.68,10.17-1,15.34,1.14,8.5,7.11,15,12.23,21.48l9.73,12.29c3,3.84,5.87,8.41,9.72,11.48a44.46,44.46,0,0,0,.94,10.4c1.62,7.24,5.73,13.79,10.68,19.23A70.45,70.45,0,0,0,428,330c6.7,3.55,15.28,8.77,23,8.92l.32,0a134.07,134.07,0,0,1,18.46,14.56,263.67,263.67,0,0,1,21.54,24.18q11.52,14.21,23,28.44c7.45,9.17,14.58,20.68,24.24,27.64,2.21,1.59,7.74.49,6.17-3.23-4.84-11.46-15.15-21.18-23-30.7q-12.76-15.51-26-30.62c-11.32-13-24.4-28-41.23-33.49a2.91,2.91,0,0,0-1-2.27c-3.06-2.79-7.12-3.8-10.9-5.32A118.94,118.94,0,0,1,431.39,323c-7.51-4-14.56-9-19.68-15.87-10.88-14.56-6.7-32.48-7-49.39a214.33,214.33,0,0,0-6.75-49.38,187.53,187.53,0,0,0-8-24.28c-2-4.87-4.06-10.48-6.88-15.37,1.66-6.7.73-14.88.77-21.46.05-8.15-.23-16.3,0-24.45.18-7.51.83-15.06,3.25-22.22,1.22-3.6,2.85-7.76,5.64-10.46,1.31-1.27,3.65-3.33,5.5-1.66,1,.87,1.66,4.35,2,5.6,4,14.85,1.71,30.55,2,45.71s4,28.06,12.39,40.79c2.25,3.39,8.66.44,6.17-3.24-6-8.84-9.82-17.64-10.91-28.32-.88-8.7-.38-17.48-.16-26.2.21-8.38.22-16.8-1.24-25.08-1.06-6-2.58-15.38-10-16.47a12.06,12.06,0,0,0-7.28,1.09c0-.07,0-.13,0-.2.22-6.74-.65-13.51-.87-20.25s-1-14.3,3.05-20.05c1.91-2.72,5.94-5.84,8.89-3.38,2.16,1.8,2.19,6.83,2.66,9.42Q406.72,58.3,409,68.6c2.92,13.39,6.67,26.58,10.37,39.77q2.85,10.14,6,20.19c1.91,6,3.32,13.2,6.89,18.44,1.29,1.9,5.53,1.49,5.29-1.3-.72-8.22-5.33-16.85-7.9-24.71-2.61-8-5.16-16.07-7.3-24.23q-1.68-6.42-3.23-12.89c4.08,4.34,8.72,8.37,12.3,12.4,4.49,5.06,4.46,10.07,5.28,16.42a67.56,67.56,0,0,0,3,12.88c6.06,18,17.67,34,19.18,53.32.75,9.67,3.66,16.89,9.23,24.8,5,7.11,9.06,13.92,11.54,22.34,3.47,11.79,5,28,14.41,37.06,7.76,12.09,23.22,20.11,36,25.45,15.84,6.62,32.53,10.6,49.2,14.52a415.78,415.78,0,0,1,51.92,15.7c15.72,5.93,32.83,13.6,50,12.16C685.4,330.56,686.7,325.26,682.22,324Zm-377-179.09c-3.52,3.64-6.45,7.2-11.43,8.93-5.59,1.94-11.4.65-16.87-1.12-5.74-1.86-10.07-4.93-11.58-11-1.23-5-.89-10.59-1.19-15.69a1.26,1.26,0,0,0-.43-.9c.88-.26,1.76-.55,2.64-.9,3-1.18,6.45-2.66,9-4.92l.08.11c4.2,4.81,10.31,8,16,10.62,2.32,1.07,6,1.69,7.79,3.53s3.15,5.1,5,7.27a36.11,36.11,0,0,0,3.05,3.19A3.26,3.26,0,0,0,305.25,144.87Zm27.21-5.25c.77-2.68,2.53-5.43,3.51-7.58,1.29-2.82,2.62-5.64,4-8.41,2.4-4.74,5.2-12.1,10.73-13.55,5.1-1.34,11.08-.53,16.35-1.12,3.65-.41,7.26-1,10.85-1.76-.44,2.46-.74,4.72-.9,6.58a146.46,146.46,0,0,0-.44,15c-7.37-1-15.74-.86-21.56,4.22-3.3,2.87-5,6.94-7.74,10.25s-9.11,6.12-13.14,2.92C331.89,144.4,331.77,142,332.46,139.62Zm44.85,16a55.7,55.7,0,0,0-11.53-5.73c-3.91-1.51-8.92-3.38-13.54-3.46,2.06-2.63,3.75-5.56,6.2-8.11,4.8-5,11.91-4.26,18.25-3.92.05,2.1.11,4.21.15,6.31C376.94,145.7,377.08,150.67,377.32,155.64Zm8.58,33.51a246.12,246.12,0,0,1,7.4,26.5,211.42,211.42,0,0,1,4.63,54.94c-.1,2.06-.26,4.12-.43,6.17-1.48-1.82-3-3.57-4.47-5.36l-10.48-13.05a99,99,0,0,1-7.79-10.27c-3.25-5.36-3.57-10.53-2.91-16.62,1.85-17-.44-34.45-13.52-46.44,6.76-.36,13.91-3,13.93-9.48,0-2.15-2.48-2.77-4.1-2.08-3.22,1.36-4.83,4.19-8.49,5.14-4.3,1.12-8.6,0-12.38-2.12a34.29,34.29,0,0,1-9.74-8.89c-1.43-1.84-2.22-3.82-3.82-5a12.1,12.1,0,0,0-7.22-9.71,2.29,2.29,0,0,0-.75-.22q-.32-.53-.68-1a8.75,8.75,0,0,0,4.24-2.33s.08-.1.12-.15c3.43,4.6,12,5.17,17.11,2.38a15.73,15.73,0,0,0,2-1.34c4.5,2.33,10.09,3,14.65,5.25,4.76,2.36,8.71,6.47,13.31,8.9C378.24,172.74,383.15,181,385.89,189.15Zm0-106.42c-3.74-1.17-7.27-7.7-9.94-10.61-4.51-4.9-9.83-9-14.29-13.9-3.51-3.85-3.93-7.92-1.55-12.54a15.1,15.1,0,0,1,2.55-4c1.52-1.38.72-1.47,2.85,0,5.76,4,11.35,8.46,17.34,12.1a2.62,2.62,0,0,0,.55.25c0,1.34,0,2.68,0,4,.19,4.27.41,8.54.88,12.79C384.71,74.34,387.79,79.45,385.89,82.73Z"/><path class="cls-2" d="M141.2,161.77c-10.2.13-20.55,3.46-30.18,6.54a196.38,196.38,0,0,0-29.29,11.6A135.58,135.58,0,0,0,34.83,219C23.1,234.51,14.34,253.87,15,273.67c.64,18.9,10.34,36,24.2,48.49A101.43,101.43,0,0,0,72,341.82a37,37,0,0,0-5.29,2.49c-5.65,3.26-2.63,10.27,3.24,10.54,8.52.39,17.16-1.42,25.69-1.74,7.81-.29,18,1.19,25-2.74,3.18-1.78,4.35-6.24,1.24-8.79-4-3.3-9.92-4.52-14.54-6.79-9.46-4.65-13.55-10.25-20-18.22-2.59-3.22-9.9-2.94-9.66,2.37a26,26,0,0,0,2,8.61c-7.93-2.89-15.7-6.15-22.78-11.08-13.06-9.1-23.8-23-25.72-39.21C27,242.13,57.16,209,85.39,192.64A210,210,0,0,1,113,179.46c9.81-3.9,20.86-6.64,29.76-12.44A2.81,2.81,0,0,0,141.2,161.77Z"/><path class="cls-2" d="M493.13,184.57c-2.47-1.4-5.76,1.75-3.38,3.93,15.19,14,20.83,35.89,19,55.92-2,21.95-13.73,42.26-27.71,58.81-27.25,32.25-66.14,54.17-107.25,62.89-15.39,3.26-31,4-46.59,4.21,7.68-3.21,15.57-7.12,20.82-13.13,3.9-4.47-.4-9-5.48-8.33-10.52,1.34-20.6,7-30.52,10.53-6.51,2.31-32,6.07-29.3,17.12a3.74,3.74,0,0,0,1.83,2c9.42,6.15,19.15,9.68,29.19,14.7,8.83,4.7,18.25,11.9,28.5,12.53,3.25.2,6.84-3.19,5.58-6.57-1.92-5.14-6.27-9.17-11.31-12.41a194.3,194.3,0,0,0,36.44-3.64,215.11,215.11,0,0,0,65.61-23.72c40.56-22.69,81.88-63.13,86-111.83C526.67,222.61,515.16,197.08,493.13,184.57Z"/></svg>