<svg id="Layer_2" data-name="Layer 2" xmlns="http://www.w3.org/2000/svg" viewBox="0 0 700 416"><defs><style>.cls-1{fill:#c2db62;}.cls-2{fill:#0048d3;}</style></defs><title>from</title><path class="cls-1" d="M497.1,101c-1.12-3.33-3.43-6.07-5.85-8.52-2.11-2.14-5.79.36-4.44,3.08a22.38,22.38,0,0,0,5.85,7.77C494.35,104.7,498,103.67,497.1,101Z"/><path class="cls-1" d="M597.55,190.66c-.31-3.57-2.68-9.75-6.55-11A23.72,23.72,0,0,0,592,168.38a21.42,21.42,0,0,0-9-14.1c-4-2.78-11.93-3.66-13.7-8.74-2-5.64-8.86-9.93-13.71-13.21-6.17-4.18-10.61-9.73-15.83-14.9l.07-.12c7.13-11.52,7.95-24.87,7-38-.74-10.4-4.15-24.77-17.66-23.32-6.08.66-11.35,5-14.64,9.91A52.45,52.45,0,0,0,510,75.23c-1.32,3.26-3.12,6.43-4.35,9.73l-.73-.85c-4.76-5.5-8.75-11.66-15.76-14.43-5.43-2.14-13.22-3.8-19.08-2.53-4.62,1-8.61,4.83-7.2,9.9a14.22,14.22,0,0,0,4.29,6.27c-16.26,5.17-34.26,2.2-50.61,7.52a54.32,54.32,0,0,0-8.43,3.63c-5.57-8.66-17.22-8.27-26.08-4.41-7,3.06-13.44,6.64-20.82,8.89-6.63,2-13.44,3.81-19.6,7.09-24.69,13.17-32.28,45.28-40.83,69.59A255.93,255.93,0,0,1,286,209.91a3.57,3.57,0,0,0-2,1.11c-5.27,6.25-9.34,12.92-15.37,18.61a145.45,145.45,0,0,1-19.16,15c-14.38,9.61-29.62,17.95-45,25.93-15.55,8.1-31.2,16.5-47.35,23.34-17,7.19-35,10.19-53.28,11.53-1.48.11-2.11,2.26-.38,2.56,38,6.47,72.52-14.64,104.9-31.55,16.55-8.64,33-17.74,48.3-28.45a139.73,139.73,0,0,0,18.87-15.47c5.07-5.07,10.82-11.08,13.72-17.82,7.1-9.6,11.8-20.95,16-32.12,5.72-15.36,10.25-31.33,17.74-46,3.61-7.07,8-13.93,13.87-19.32,6.39-5.85,14.13-8.72,22.31-11.18A130.53,130.53,0,0,0,381,97.64c5.78-2.93,17.15-7.88,21.33.15-3.83,2.32-7.6,4.78-11.55,7a111.75,111.75,0,0,1-13.48,6.4c-3.24,1.26-8,1.81-9.55,5.24-.2.43.17.87.5,1.08,3.1,2,7.44.1,10.64-1a92.8,92.8,0,0,0,13.78-5.7c9.4-4.9,17.7-11.87,28.09-14.7,17.36-4.73,35.8-1.69,52.72-8.17,1.9,1.14,3.76,2.09,5.29,2.81,2.5,1.18,4.38-1,3.67-3.28-.29-.93-3.95-2.82-4.8-3.45-2.29-1.68-8.91-5.51-8.42-9,.62-4.45,12-1.35,14.41-.7C490.08,76,493,80.54,497,85.44c3.64,4.47,8.14,9.07,8.83,15.06,1.37,12-16.17,12.05-24.11,14.87-8.55,3-20.24,8.22-25.49,16-1.84,2.72,2,5.27,4.42,3.92.6-.34,1.18-.72,1.76-1.11-.17,7.88,1.83,16.17-2.3,23.18-1.46,2.47-3.75,5.27-5.43,8.22-.72-3.69-.92-7.4-1.63-11.08-.22-1.12-1.95-1.32-2.66-.62-5,5-3.13,12.82-1.91,19,.79,4,1.74,8.34.8,12.41s-3.74,6.92-6.7,9.56c-5.71,5.12-10.87,10-15.43,16.17a131.27,131.27,0,0,1-10.82,12.74c-2.68,1.4-5,3.65-7.42,5.41-3.49,2.51-7.11,4.86-10.76,7.14-6.94,4.33-14.05,8.36-21,12.63a393.55,393.55,0,0,0-41.9,29.82c-13.36,10.81-26.08,22.39-38.37,34.41s-24.24,24-34.39,37.81c-1.1,1.49,1.36,2.69,2.5,1.71,13.12-11.27,24.83-23.94,37.32-35.89s25.32-23.33,38.85-34a381.07,381.07,0,0,1,43.21-29.3c7.06-4.13,14.19-8.14,21.11-12.5q4.89-3.08,9.6-6.41c2.18-1.55,4.58-3,6.34-4.93,4.13-2.91,7.29-7.26,10.32-11.4A119,119,0,0,1,439.56,208c3-3.31,6.66-5.95,9.91-9,9.76-9.25,6.94-22.14,13.47-33,1.95-3.23,4.19-6.35,5.33-10,1.26-4,.94-8.2.63-12.33-.33-4.43-.34-9.07-1.44-13.4a42.4,42.4,0,0,1,3.71-2.72,67.59,67.59,0,0,1,10.16-5.32,49.35,49.35,0,0,1,8.57-2.56c-3.9,7.79-5.88,17-8.78,25.15q-4.74,13.31-10.14,26.37c-7,17-16.41,34-17.33,52.78s10.32,35.23,10.11,53.9c-.21,18.85-9,37.05-8,55.86.15,2.84,5.06,3.63,5.66.66,1.89-9.44,3.56-18.88,5.74-28.27,2-8.43,3.77-16.94,4.14-25.62.39-9.37-1.46-18.22-4.3-27.11s-6-17.47-6.08-26.81c-.12-19,9.65-36.66,16.53-53.83q5.25-13.09,9.83-26.44c3-8.69,7.26-18.38,7.76-27.62,0,0,0-.05,0-.08a64.57,64.57,0,0,0,7.54-2,17.62,17.62,0,0,0,8.36-5.62,13.44,13.44,0,0,0,3.78,13.23c7.57,7.39,16.68,3.43,22.53-3.28a38.29,38.29,0,0,0,7.87,11c3.87,4,8.79,6.68,12.72,10.56a20.05,20.05,0,0,1,5.69,16.54c-.73,5.7-4.25,13.4-10.41,12.61a153,153,0,0,0-21.8-1.17,122.67,122.67,0,0,0-13.33.89c-1.49-2.33-3.35-4.48-3-7.54.46-3.85,4.29-6.26,7.54-7.56,3.52-1.41,7.29-1.62,11-2.35,3.53-.7,5.53-1.9,8.43-4,.61-.44,0-1.36-.61-1.31-4,.32-8.23.29-12.42.63,2.86-2,5.28-4.89,4.32-8.26-.51-1.78-2.77-1.88-4-.93-1.57,1.19-2.19,3-3.06,4.68a43.47,43.47,0,0,1-2.65,4.57,1.07,1.07,0,0,0-.18.73,21.82,21.82,0,0,0-10.94,5.35c-4.43,4.2-5.66,11.88-2.92,17.36-.75.15-1.49.31-2.24.47-7.39,1.68-15.29,3.6-21.56,8-.67.47,0,1.51.67,1.44,6.11-.63,12-2.5,18-3.6A162.06,162.06,0,0,1,525,176.72a129.49,129.49,0,0,1,19.81.52c6.64.69,14.66,1.47,19.77,6.24s4.62,11.59-.76,15.83-13.12,4.83-19.43,6.23c-13.33,2.94-27.25,4.94-39.82,10.34-2,.87-.81,3.62,1.1,3.57,8.79-.24,17-2.16,25.63-4l2.26-.48c-2.29,7.8-5.61,14.71-11.91,20.27a49.38,49.38,0,0,1-22.15,11c-1.4.29-.91,2,.33,2.11a36,36,0,0,0,26-8.41c8.17-6.68,12.44-15.43,15-25.46a3.13,3.13,0,0,0,.09-1c3.61-.73,7.22-1.49,10.79-2.34-.88,4.81,4.42,7.86,9.11,9.08-4.6,6.06-7.38,13.49-11.68,19.78a35.23,35.23,0,0,1-9.28,9.75c-4,2.62-8.12,3.06-12.65,3.87-2.76.49-2.3,3.94,0,4.65,4.15,1.28,8.54.44,12.56-1.47-1,7.45.49,15.43,1.94,22.58,2.07,10.18,5.42,20,7.76,30.16a184,184,0,0,1,4.75,31.69c.6,11.1-.72,22.1-.49,33.18.09,4.26,6.93,5,8.11,1,2.93-10,2.9-20.95,2.43-31.31a168.63,168.63,0,0,0-4.5-32.17c-2.48-10.16-6.32-20-9.36-30-2.86-9.41-4-18.65-5.52-28.22a35.74,35.74,0,0,0,5.69-5.28,65,65,0,0,0,8.3-13.17c2.35-4.61,5.08-9.38,6.43-14.43,8.15.08,15.77-4.35,21.68-9.64S598.26,198.93,597.55,190.66Zm-70.74-67c-8.23,2.22-12.36-7-10-13.41s6.5-12.35,7.92-19.06c.57-2.67-3.19-3.86-4.64-1.73a62.94,62.94,0,0,0-6.34,13c0-5.14-2.19-9.59-5.1-13.61a2.36,2.36,0,0,0,.69-.39c8.27-6.9,7.33-23.42,19.45-26.45,13.34-3.34,12.25,22,12.07,29.66C540.67,102,539.37,120.25,526.8,123.63Zm56.09,81.68c-3.76,3.6-8.18,6.89-13.29,8.22-2.34.61-5.09,1-7.43.12s-3.14-2.6-4.77-4c11.88-3.39,24.39-14.6,15.25-27.45a23,23,0,0,0-9.21-7.42C567.61,173.16,570,167,571,163c.58-2.28-.79-5.83,1.21-7.52s5,1.26,6.48,2.5a17.08,17.08,0,0,1,6,9.17c2.06,8.18-2.75,13.9-6.89,20.26-1.67,2.57,1.89,5,4.19,3.71a19.57,19.57,0,0,0,6.31-6c1,1.74,2.1,3.49,2.21,5.5C590.76,196.42,586.81,201.55,582.89,205.31Z"/><path class="cls-1" d="M487.86,242.17c-6-2-11.51-3.92-16.48-7.91-.86-.69-2.37.08-1.75,1.21,3.52,6.37,10.14,11.11,17.56,11.21A2.29,2.29,0,0,0,487.86,242.17Z"/><path class="cls-1" d="M499.1,135.64c-.1-1.61-2.68-2-3.12-.37-1.78,6.33-2.71,14.18.14,20.35,1,2.16,5,2.24,5-.62C501.13,148.62,499.48,142.06,499.1,135.64Z"/><path class="cls-2" d="M449.14,68.67c-6.74-3-13.15-6.66-20.08-9.32a155,155,0,0,0-21.27-6.55c-10.54-2.39-22.16-4.55-33.33-4.12a53.45,53.45,0,0,0,6.68-2.24c3-1.27,2.13-5.88-1-6.37-12.49-2-26.43,3.48-37.41,9-5,2.47-2.82,8.17,1.46,9.72,5.76,2.08,11.8,3.8,17.33,6.46a21.68,21.68,0,0,1,5.57,3.6c1.94,1.82,3.19,4,5.77,5s5.36.37,6.56-2.4c2.19-5-2.72-9.74-7.09-12.71,11.45,1.13,22.91,1.44,34.29,4a176,176,0,0,1,21.2,6.18c6.74,2.46,12.79,4.71,20,4.1C450,72.84,451.76,69.83,449.14,68.67Z"/></svg>