<svg id="Layer_2" data-name="Layer 2" xmlns="http://www.w3.org/2000/svg" viewBox="0 0 700 620"><defs><style>.cls-1{fill:#c2db62;}.cls-2{fill:#5fbd5a;}.cls-3{fill:#0048d3;}</style></defs><title>goal</title><path class="cls-1" d="M349.37,378.69c3.6-7.3,4.87-15.33,5.42-23.38.26-3.79.46-7.63.55-11.49a1.9,1.9,0,0,0,.46-.22c7.1-4.79,10.86-15.12,12.17-23.24,1.44-8.91.12-18.64-4.54-26.49a17.75,17.75,0,0,0-5.21-5.7c3.89-4.66,4.31-12.7,2.57-18.08a20.77,20.77,0,0,0-13.69-13.52,21.62,21.62,0,0,0-1.72-3.93,14.57,14.57,0,0,0-11.85-7.3c-6.25-.58-13.18.85-19.05,2.9-6.67,2.33-14.09,7.65-21.3,7.52a1,1,0,0,0-.55.15c-1-.11-1.9-.23-2.86-.32a2.07,2.07,0,0,0-.54-1.64c-20.67-25.41,15.51-59.29-3.51-86-3-4.16-7.14-7.61-12.44-5.28-6.78,3-6.28,10.91-7.54,17.06-3.1,15.17-11.59,28.7-13.17,44.28-.94,9.34.29,18.75-.07,28.11a129.34,129.34,0,0,1-1.61,16c-.48,2.91-1.18,5.85-1.62,8.79-6,14.77-1.85,34.06,1.35,48.75,4.45,20.43,9.58,40.19,10.25,61.23,1.36,42.06-11.25,82.18-21.5,122.47l-8.58,33.7c-2.87,11.27-6.8,22.71-7.38,34.38-.22,4.37,6.06,4,7.51.88,4.4-9.47,6.17-20,8.64-30.11L247,518.14c4.91-20.06,9.85-40.16,13.85-60.43,7.86-39.77,9-79.56-1-119-2.69-10.59-5.83-21.08-7.48-31.9a101.16,101.16,0,0,1-1.16-16.59,63.22,63.22,0,0,1,.59-7.22,1.51,1.51,0,0,0,.59-.58c4.37-7.66,5.24-17.9,6.07-26.55.9-9.38.2-18.72.64-28.1.84-18.07,11.51-33.66,14-51.42.27-1.94.35-7.54,3-8.23,2.11-.55,3.85,2.77,4.71,4.18a28.54,28.54,0,0,1,3.75,11.45c1.14,9.39-1.39,18.56-3.75,27.55-3.77,14.38-7.13,31.07,2.29,43.89a41.87,41.87,0,0,0-8.39.59,1.38,1.38,0,0,0-.37,2.59c6.83,3,14.89,3.31,22.24,4.32,8.05,1.11,16.1,2.25,24.17,3.2,5.82.69,12.25,1,17.6,3.66,6.45,3.19,7.07,8.88,7.43,15-2.07-.13-4.2-.17-6.38-.2-11.56-.17-22.8-3.44-33.86-6.55-.85-.24-1.84.88-1,1.54,6.81,5.35,14.3,8.36,22.74,10.2a89.83,89.83,0,0,0,13,1.82c4.69.32,10-.49,13.65,3.12,5.68,5.63,6.55,15.88,6.16,23.41a40.76,40.76,0,0,1-2.67,12.47,31.15,31.15,0,0,1-2,4.16c-.07-2.67-.21-5.32-.44-8-.75-8.62-2.11-18.64-8.18-25.24a1.5,1.5,0,0,0-2.51,1.31c1.7,8.71,4.31,16.64,4.6,25.65.27,8.43.2,16.94-.28,25.36-.49,8.72-1.79,17.8-6,25.56-2,3.69-4.79,6.9-6.78,10.6a74.07,74.07,0,0,0-4.9,11.28c-5.5,16.23-.82,33.67,3.54,49.57,5,18.27,9.1,36.73,11.15,55.59,1.15,10.57,1.72,21.25,1.81,31.88.09,10.44-1.61,21.57-.12,31.9.62,4.32,6.85,5.29,8.44,1,3.2-8.65,3.18-19.11,3.29-28.23a241.72,241.72,0,0,0-1.36-29.1A254.28,254.28,0,0,0,345,457.52c-6.17-17.79-13.62-36.07-9.35-55.23C337.72,393.09,345.31,386.94,349.37,378.69Zm-19.3-118.63c-7.45-1.09-15-1.77-22.48-2.46,4.67-1.48,9.14-3.42,14-4.45,4.61-1,12.35-2.75,15.78,1.42,1.89,2.29,1.88,5.11,2.33,7.79A47.21,47.21,0,0,0,330.07,260.06Zm24.76,20a13.34,13.34,0,0,1-1,2.59c-.18-5.43-1.66-10.92-5.46-14.88a19.07,19.07,0,0,0-1.69-1.56A7.85,7.85,0,0,0,348,262a16.31,16.31,0,0,1,6.88,18.13Z"/><path class="cls-1" d="M567.15,465.76a448,448,0,0,0-6.35-52.14c-6.17-35.38-16.38-69.84-22.82-105.15-3.31-18.13-5.11-36.29-7.23-54.57-2-17.59-8.09-33.29-15.47-49.27a390.62,390.62,0,0,1-18.91-50.51c-3.08-10.12-6.1-28.89-18.56-31.57.45-7.46-7.05-12-14.17-12.39-1.2-.06-2.39-.06-3.59,0a359.38,359.38,0,0,0-41.32-44.45,275.71,275.71,0,0,0-24-19.8c-1.86-1.33-4-3-6.34-3.47a4.34,4.34,0,0,0-.33-.77.86.86,0,0,0-.74-.38c-5.53.11-6.46,9.56-6,13.62.73,6.6,5.25,11.44,9.67,16,6.36,6.53,12.71,13.06,19,19.68q4.69,5,9.33,10c2.24,2.42,4.42,5.55,7.09,7.74-7.4-1.58-18-3.93-21.86,4.86-1.65,3.75-.75,7.95.6,11.63,1.67,4.55,3.36,9.82,6,14a7.17,7.17,0,0,0,0,1c-6.79-2.09-14.45,2.49-17.1,9.09-4.18,10.42,3.3,21,9.8,28.49,3.85,4.44,8,8.81,10.49,14.21,2.4,5.19,3.35,10.9,4.85,16.38,2.68,9.81,8.27,17.53,17.57,22,10,4.77,20.12,7.36,26.56,17.12,6.6,10,9.5,22.59,12,34.12,5.9,27.08,7.8,55.33,7.76,83q0,23.09-2.35,46.11c-1.45,14.37-4.7,28.56-6.25,42.87l-5.43-1c-12.57-2.45-25.15-4.8-37.7-7.33-25.15-5.07-50.23-10.93-75.68-14.24-1.42-.18-3,1.82-1.18,2.52,23.64,9.1,48.42,15.06,73,20.9,12.42,2.95,24.85,5.88,37.35,8.5q9.62,2,19.25,4c5.8,1.17,12.63,3.62,18.46,1.87,3.18-1,5.24-5,2.19-7.5-4.74-3.87-11.51-4.08-17.35-5.17l-5-1c3.21-11.19,4.33-23.37,5.73-34.86q2.33-19.1,3.06-38.36a460.69,460.69,0,0,0-3.46-76.79A268.73,268.73,0,0,0,480.92,269c-2.66-9.81-5.92-20-12.35-28.07-6.21-7.78-14.46-11.29-23.45-14.88-4.34-1.73-9.29-3.57-12.88-6.63C428,215.74,426,210.26,424.5,205c-1.62-5.47-2.71-11.08-5.23-16.24-2.45-5-6.13-9.15-9.76-13.32-4.6-5.28-9.75-11.22-10.61-18.47-.77-6.5,4.55-15.55,12.24-12.55a2.73,2.73,0,0,0,1.22.18,23.46,23.46,0,0,0,2.51,5c.64,8.3,6.8,17,13,22.55a15.86,15.86,0,0,0,3,9.8c2.73,3.56,6.83,6.14,10.63,8.42s12.64,7.19,17.68,4.86c-.48,4.4-.82,8.81-.94,13.27-.15,5.74.61,11.32,4.28,15.94,3.41,4.29,8.25,7.24,13.05,9.74s11.45,6.63,17,5.25c1.3-.32,2.43-2,1.45-3.21-2.84-3.66-8.36-4.54-12.46-6.45-4.63-2.16-9.85-4.54-13.4-8.33-4.13-4.42-4.34-10.64-4.51-16.34-.13-4.52-.34-9-.7-13.42,1.37-3.85-.45-8.66-2.12-12.16a24.55,24.55,0,0,0-9.06-10.24,7.55,7.55,0,0,0-1.29-3.07,13.79,13.79,0,0,0,1.6-.17c4.22-.71,8-3.17,9.53-7.26,1.12-3-3.72-4.19-5.25-2a9.13,9.13,0,0,1-5.85,4.18c-2.35.42-4.64-.34-7-.53a1.27,1.27,0,0,0-1.32,1.56,5.07,5.07,0,0,0,2.47,3,1.12,1.12,0,0,0,.08.67c1.11,2.37,1.64,4.91.62,7.41s-3.55,4.38-3.3,7.11a2.35,2.35,0,0,0,3,2c2.94-.78,5-3.9,6.05-7a27.89,27.89,0,0,1,3.86,7.32c.8,2.37.8,4.92,1.31,7.31-2.5.29-5.76-1.67-7.64-2.51a49.81,49.81,0,0,1-11.28-6.4,12.25,12.25,0,0,1-4-7.67,1.47,1.47,0,0,0-.08-1.91l-.17-.22a43.09,43.09,0,0,1,1.61-13.5c2.46-9.28,9-11.2,17.58-12.84,5.57-1.07,12-3.09,14.27-8.77.95-2.32-2.6-3.29-4-2.07-4.34,3.71-8.68,5-14.16,6.2-4.45,1-9,2.17-12.48,5.26-5.47,4.81-7.1,12.38-7.72,19.51-2.77-3.57-5.28-7.34-6.21-11.77-1.76-8.45,2.52-14.21,10.58-16.28,7.91-2,16-3.52,24-5.25,4.16-.91,8.32-1.82,12.48-2.72,4.57-1,8.79-1.64,11.84,2.56,4.15,5.7,5.39,14,7.37,20.66,2.35,7.89,4.65,15.81,7.25,23.62,5,15.06,12.1,29.15,18.24,43.74,6.54,15.55,9.09,31,10.7,47.66,1.51,15.68,3.83,31.25,6.66,46.74,5.78,31.69,12.48,63.21,18.12,94.92a475.22,475.22,0,0,1,6.93,54.14c.54,8.78.73,17.59.49,26.39-.25,9.13-1.7,18.25-.79,27.35.42,4.24,6.53,4.88,8,.94,3.1-8.18,3.34-16.93,3.64-25.6S567.63,474.55,567.15,465.76ZM419.71,92.27q-8.44-8.83-17-17.5c-4.93-5-11.78-10-14.67-16.56a15.73,15.73,0,0,1-.11-12.46c2.18.83,4.75,3.38,5.31,3.85,1.36,1.13,2.75,2.23,4.11,3.37q4.76,4,9.39,8.09,8.6,7.66,16.71,15.85a404.21,404.21,0,0,1,29.87,33.55c-2.43.15-4.87.27-7.3.2a105.32,105.32,0,0,1-13.19-1.22A1.89,1.89,0,0,0,433,108c-.75-3.13-3-4.91-5.19-7.24Q423.77,96.5,419.71,92.27Zm51.06,30.28c-3.47.51-6.95,1.55-10.28,2.28l-15.35,3.37c-7.61,1.67-17.37,2.33-23.76,7.27a18,18,0,0,0-4.11,4.37c-.31-.56-.63-1.11-1-1.67l-.61-1c-1-5.72-4-11.06-5.13-16.77-2.33-11.78,12-6.62,18.31-5.47a114.69,114.69,0,0,0,21.94,1.85C455.41,116.68,472.58,113.78,470.77,122.55Z"/><path class="cls-2" d="M236.82,341.77a16,16,0,0,0-2.92-15.6c-2.65-3.12-2.24-6-3.66-9.48-1.05-2.61-3-4.67-4.93-6.68s-4.62-4.2-5.19-7c-.82-4,3.72-8.32,5.16-12a18.42,18.42,0,0,0-2.92-18c-7.62-9.72-21.27-10.63-29.43-19.36-5.8-6.21-3.46-15.15-5.16-22.79-1.61-7.25-6-13.55-11-18.88-6.4-6.81-14.23-11.93-21.58-17.6a99.53,99.53,0,0,1-19.77-20.09c-1-1.33-3.31-.62-3,1.13,2.69,14.5,18.07,23.5,28.72,31.9,6.35,5,12.62,10.64,16.48,17.85,4.07,7.6,2.49,15.55,4.46,23.58,2.92,11.86,15.34,16.25,25.17,21,5.59,2.71,11.47,6.13,13.1,12.61,1.22,4.86-.13,8.89-2.79,12.92-1.71,2.59-3.56,5.28-3.44,8.53.24,6.28,7,9.24,9.35,14.5,1.45,3.3.51,6.36,2.84,9.43,3.26,4.3,6.2,7.9,3.48,13.58A3,3,0,0,0,231,345.5c6.65,4.33,10.46,11.86,11.08,19.67.71,9-3.15,16.26-9.56,22.33-6.15,5.83-13.11,10.68-17.73,18-4.31,6.81-8.29,17.09-4.63,24.82,1.19,2.5,5.21,3,6.22,0,1.66-5,1.52-10.16,3.07-15.2a34.32,34.32,0,0,1,8-13.51c6.39-6.79,14.59-12.33,18.87-20.85C253.13,367.2,248.35,350.8,236.82,341.77Z"/><path class="cls-2" d="M192.83,306.72c-1.53-1.6-3.89-2.27-5.3-3.94a4.71,4.71,0,0,1-.57-4.65c.56-1.76-1.47-3.22-3.07-2.72-4,1.22-5.24,5.59-3.72,9.23,1.72,4.13,6.06,6.7,10.38,7.06A2.92,2.92,0,0,0,192.83,306.72Z"/><path class="cls-2" d="M210.82,297.7c-1.32-1.95-4.25-2.3-6.29-1.27a4.69,4.69,0,0,0-2.68,4.23c0,1.62,2.13,2.56,3.43,1.74a4.47,4.47,0,0,1,.43-.23l.09,0c.17,0,1.5-.38.63-.2l.56-.13a3.71,3.71,0,0,0,.55-.17l0,0a3.87,3.87,0,0,0,1.07-.11c.17,0,1.49-.56.55-.22C210.66,300.78,211.88,299.27,210.82,297.7Z"/><path class="cls-3" d="M355.82,42.31c-5.29,2.17-10.63,4.22-15.94,6.35-4.65,1.86-10.32,3.18-13.87,6.86A2,2,0,0,0,327,59c5.55.87,11.08-1.36,16.33-3l.74-.24c-4.78,6.76-10.33,13.09-15.55,19.45q-10.19,12.41-20.77,24.49-10,11.37-20.26,22.45c-3.65,3.92-7.35,7.79-10.95,11.75-2.72,3-6.2,5.61-6.78,9.74-.19,1.38,1.64,2,2.67,1.8,4.21-1,7-4.69,10-7.62,3.83-3.75,7.49-7.66,11.17-11.56q10.69-11.36,21-23,9.72-11,19.14-22.21c4.8-5.72,9.34-11.75,14.15-17.51a37.74,37.74,0,0,0-.44,13.68c.7,3.94,6.5,2.85,7.71,0,2-4.76,2.43-10,3.53-15.07a137,137,0,0,1,4.21-14.92C364.39,42.84,358.94,41,355.82,42.31Z"/></svg>