<svg id="Layer_2" data-name="Layer 2" xmlns="http://www.w3.org/2000/svg" viewBox="0 0 700 418.78"><defs><style>.cls-1{fill:#ff7218;}.cls-2{fill:#0048d3;}.cls-3{fill:#c2db62;}.cls-4{fill:#5fbd5a;}</style></defs><title>play</title><path class="cls-1" d="M584.47,391.16a.5.5,0,1,0,0,1A.5.5,0,1,0,584.47,391.16Z"/><path class="cls-2" d="M601.4,223.62c-7.22-2-14.94-1.06-22.27-2.67-2-.43-3.9,1.77-2.2,3.39a16.51,16.51,0,0,0,8.69,4,28.1,28.1,0,0,1-3.48,1.14,53.71,53.71,0,0,1-15.88,1.16,61,61,0,0,1-15-2.87c-4.17-1.36-8.51-4.29-12.91-4.49a.84.84,0,0,0-.8,1.25c1.93,3.89,7.78,5.93,11.61,7.38a63.54,63.54,0,0,0,17.07,3.85,72.24,72.24,0,0,0,16.78-.7c2-.3,4.33-.58,6.57-1.1-1.93,3-2.95,6.29-1.45,9.54a2.29,2.29,0,0,0,3.61.84c2.13-2,2.51-4.65,4-7.14,1.78-3,4.84-5.63,7.31-8.11C605,227.16,604,224.32,601.4,223.62Z"/><path class="cls-2" d="M648.41,225.16c-5.67,5-10.23,10.05-17.14,13.48a80,80,0,0,1-12.27,4.7c-1.65.5-3.32.86-4.91,1.37a13.55,13.55,0,0,0,1-7.77c-.3-1.5-2.69-1.26-3.11,0-.93,2.78-3.47,5.1-5.29,7.36a26.47,26.47,0,0,1-6.38,6.22c-3.93,2.43-.92,6.81,3,6.25a22.63,22.63,0,0,1,8.89.49c2.59.66,4.62,1.77,7.31,1a2.57,2.57,0,0,0,2-3.12c-.86-2.63-3.26-4.1-6.21-4.87a56.51,56.51,0,0,0,7.85-2.5,75.27,75.27,0,0,0,12.39-5.42c6.05-3.46,13.45-8.88,14.91-16.14A1.2,1.2,0,0,0,648.41,225.16Z"/><path class="cls-1" d="M115.53,406.22a.5.5,0,1,1,0,1A.5.5,0,1,1,115.53,406.22Z"/><path class="cls-3" d="M651.3,292.8l-5.24-17.1c-3.23-10.53-6-21.61-11-31.44-.71-1.39-3.66-.86-3.44.84,1.39,10.91,5.43,21.55,8.72,32l5.07,16.12c1.63,5.19,3,10.69,5.92,15.32.84,1.34,3.49.91,3.44-.84C654.61,302.62,652.78,297.65,651.3,292.8Z"/><path class="cls-3" d="M582.33,308.44q-2.91-18.63-7.39-37c-1.57-6.42-3.28-12.79-5.26-19.09-1.69-5.37-2.94-11-6.73-15.34a1.19,1.19,0,0,0-2,.74c-.61,5.72,2,11.44,3.42,16.89,1.63,6.07,3.26,12.14,4.75,18.25q4.42,18.14,7.28,36.62c3.82,24.78,5.6,49.76,6.6,74.79.07,1.76,2.88,1.73,3,0C587.85,359,586.25,333.52,582.33,308.44Z"/><path class="cls-3" d="M576.48,188.28c-2.43,1-3.75,3.95-5.33,5.94a49.39,49.39,0,0,0-4.73,6.45c-1,1.79,1.15,3.18,2.74,2.43a22.17,22.17,0,0,0,7-5.49c1.75-2,4.61-4.44,4.44-7.26C580.43,188.23,578.2,187.58,576.48,188.28Z"/><path class="cls-3" d="M607.09,190.88c-2.1-.74-4.42-.26-6.59-.74s-4.29-1.15-6.41-1.79c-1.32-.4-3,1.12-2.08,2.43a12.32,12.32,0,0,0,6.88,4.62c2.7.75,6.36,1.37,8.84-.24C609.67,193.88,609.17,191.61,607.09,190.88Z"/><path class="cls-3" d="M648,30.2c-3.59-5.09-9.55-2.39-12.49,1.82-4.18,6-5.9,13.47-7.93,20.36-4.51,15.28-12,28.65-19.4,42.45-5.1,2.13-7.79-5-10.65-8a19.77,19.77,0,0,0-11.23-6A15.31,15.31,0,0,0,571.64,87a15.89,15.89,0,0,0-16.75-1.61,15.13,15.13,0,0,0-5.24,4.78,22.11,22.11,0,0,0-2.86-4,11,11,0,0,0-11.67-3.45c-14.53,4.55-9.9,23.61-9.53,34.76.15,4.59.33,9.18.49,13.77.06,1.56,0,3.33,0,5.16-4.17,1.45-7.33,3.43-12,3.17-5.37-.31-10.21-2.63-14.78-5.28-8.44-4.89-16.35-10.9-26.36-12-6.16-.66-15,.84-17.74,7.35-1.84,4.42,1.32,12.09,6.68,11.29,5,1.92,7.56,7,10.35,11.46a24.26,24.26,0,0,0,11.08,10c5.05,2.19,10.63,2.88,15.58,5.33s8.92,6.48,12.58,10.54,7,8.29,10.85,12.09a69.17,69.17,0,0,0,13.55,9.81c5.32,3.16,10.41,6.36,14.2,11.36s4.52,10.5,7.28,15.75c1.48,2.82,5.64,1.18,6-1.47.73-5.42-3-12.09-5.95-16.42a42.51,42.51,0,0,0-12.86-11.78c-6-3.73-12.18-6.73-17.33-11.63-4.29-4.07-8-8.73-12-13-3.81-4-8-7.78-13.05-10.21-5.43-2.64-11.65-3.1-17-5.75-9.41-4.64-12.1-19.46-23.5-19.9-1.66-2.14-2.88-4.42-.17-7,3.27-3.09,9.16-2.93,13.16-2.11,7.74,1.6,14.16,6.63,20.81,10.59,5.55,3.3,11.44,6,18,6.52,4.11.31,9.42-.19,13-2.7a13,13,0,0,0,3.15,7.36c3.48,3.6,9,3.15,12.84.43a11.67,11.67,0,0,0,2.79-2.8,11.21,11.21,0,0,0,2.4,6.5c6.38,7.53,15.81,2,21.43-3.49a9,9,0,0,0,7,1.63c7.39-.95,11.79-7.82,13.56-14.46,1.11-4.16,1.38-8.47,2-12.71a42.84,42.84,0,0,1,1.56-7.11c.79-2.35,2.23-4.33,2.9-6.7.59-2.09-2.1-2.77-3.45-1.78-4.4,3.22-5.21,10.29-5.87,15.32-.87,6.54-1.39,13.74-5.72,19.09-3,3.7-10,6.31-10.82-1-.39-3.51.11-7.33.31-10.84.48-8.45,2.17-17.09,2.15-25.52,0-1.71-2.72-1.94-3.21-.38-3.27,10.44-3.77,22.93-4.18,33.81a19.07,19.07,0,0,0,.34,4.45,3.44,3.44,0,0,0-.54.49c-2.09,2.32-4.53,5.48-7.7,6.3-5.2,1.34-5.8-3.86-5.9-7.72-.19-7.16-.08-14.49-1.08-21.6-.25-1.77-3.48-2.57-3.8-.45-1.11,7.34-.86,20.51-7.69,25.44-3.15,2.27-6.37.27-7.34-3.06a34.66,34.66,0,0,1-.78-7.48l-1-16.72c-.32-5.35-.32-11-.19-16.4.12-5,.92-10.75,5.17-14,5.42-4.15,10,2,11.33,6.94.85,3.14.09,6.59,1.16,9.66.56,1.6,2.13,2.47,3.35,1,.93-1.14.37-4.55.51-6,.41-4.16,1.67-8.22,5.45-10.5a9.5,9.5,0,0,1,13.32,4c1.09,2.12,5.28,1.72,5.77-.69a8.62,8.62,0,0,1,11.16-6.73c5.11,1.44,7.31,5.83,10.52,9.54a13.31,13.31,0,0,0,8.42,4.23c4.28.4,5.87-1.56,7.46-5.06,2.17-4.8,6-9.18,8.55-13.93a147.33,147.33,0,0,0,7.39-16.22c2.68-6.85,4.44-14,6.89-20.89,1.38-3.91,1.91-10.21,7.17-10.51a2,2,0,0,1,.88.1c.79.32,1,1.33,1.06,2.19.27,4.06-.71,8.15-1.08,12.16a92.85,92.85,0,0,1-2.65,14.15,231.17,231.17,0,0,1-9.25,27.39c-2.32,5.92-5.13,11.65-6.92,17.77-2,6.76-1.88,12.25-.68,19,1.5,8.42,1.84,17.57,2.16,26.12a84.45,84.45,0,0,1-2.24,24.79A54.06,54.06,0,0,1,620.21,189c-1.53,2.9-3.47,5.22-3.85,8.53-.23,2,2.51,2.67,3.89,2l.2-.11c.44,4.36,2.1,9,2.9,12.63,1.71,7.87,2.72,16.68,5.88,24.1.91,2.13,5,2.19,4.89-.61-.35-7-2.79-14.18-4.47-21L627,204c-.69-2.8-1.83-5.76-2.25-8.69,2.35-3.43,3.79-7.9,4.9-11.44a75.29,75.29,0,0,0,3.19-19.48,121,121,0,0,0-1.52-22.9c-1.26-8.31-2-16.44-1.35-24.89.46-5.58,2.5-11.1,4.57-16.25,3.15-7.84,6.31-15.62,8.85-23.69a197.37,197.37,0,0,0,6.29-24.8C650.86,45.29,652.1,36,648,30.2Z"/><path class="cls-3" d="M48.7,307.86l5.24-17.1c3.23-10.53,6-21.61,11-31.44.71-1.39,3.66-.86,3.44.84-1.39,10.91-5.43,21.55-8.72,32L54.6,308.3c-1.63,5.19-3,10.69-5.92,15.32-.84,1.34-3.49.91-3.44-.84C45.39,317.68,47.22,312.7,48.7,307.86Z"/><path class="cls-3" d="M117.67,323.5q2.91-18.63,7.39-37c1.57-6.42,3.28-12.79,5.26-19.09,1.69-5.37,2.94-11,6.73-15.34a1.19,1.19,0,0,1,2,.74c.61,5.72-2,11.44-3.42,16.89-1.63,6.07-3.26,12.14-4.75,18.25q-4.42,18.14-7.28,36.62c-3.82,24.78-5.6,49.76-6.6,74.79-.07,1.76-2.88,1.73-3,0C112.15,374,113.75,348.57,117.67,323.5Z"/><path class="cls-3" d="M123.52,203.34c2.43,1,3.75,3.95,5.33,5.94a49.39,49.39,0,0,1,4.73,6.45c1,1.79-1.15,3.18-2.74,2.43a22.17,22.17,0,0,1-7-5.49c-1.75-2-4.61-4.44-4.44-7.26C119.57,203.28,121.8,202.63,123.52,203.34Z"/><path class="cls-3" d="M92.91,205.94c2.1-.74,4.42-.26,6.59-.74s4.29-1.15,6.41-1.79c1.32-.4,3,1.12,2.08,2.43a12.32,12.32,0,0,1-6.88,4.62c-2.7.75-6.36,1.37-8.84-.24C90.33,208.94,90.83,206.67,92.91,205.94Z"/><path class="cls-3" d="M52,45.26c3.59-5.09,9.55-2.39,12.49,1.82,4.18,6,5.9,13.47,7.93,20.36,4.51,15.28,12,28.65,19.4,42.45,5.1,2.13,7.79-5,10.65-8a19.77,19.77,0,0,1,11.23-6,15.31,15.31,0,0,1,14.65,6.1,15.89,15.89,0,0,1,16.75-1.61,15.13,15.13,0,0,1,5.24,4.78,22.11,22.11,0,0,1,2.86-4,11,11,0,0,1,11.67-3.45c14.53,4.55,9.9,23.61,9.53,34.76-.15,4.59-.33,9.18-.49,13.77-.06,1.56,0,3.33,0,5.16,4.17,1.45,7.33,3.43,12,3.17,5.37-.31,10.21-2.63,14.78-5.28,8.44-4.89,16.35-10.9,26.36-12,6.16-.66,15,.84,17.74,7.35,1.84,4.42-1.32,12.09-6.68,11.29-5,1.92-7.56,7-10.35,11.46a24.26,24.26,0,0,1-11.08,10c-5.05,2.19-10.63,2.88-15.58,5.33s-8.92,6.48-12.58,10.54-7,8.29-10.85,12.09a69.17,69.17,0,0,1-13.55,9.81c-5.32,3.16-10.41,6.36-14.2,11.36s-4.52,10.5-7.28,15.75c-1.48,2.82-5.64,1.18-6-1.47-.73-5.42,3-12.09,5.95-16.42a42.51,42.51,0,0,1,12.86-11.78c6-3.73,12.18-6.73,17.33-11.63,4.29-4.07,8-8.73,12-13,3.81-4,8-7.78,13.05-10.21,5.43-2.64,11.65-3.1,17-5.75,9.41-4.64,12.1-19.46,23.5-19.9,1.66-2.14,2.88-4.42.17-7-3.27-3.09-9.16-2.93-13.16-2.11-7.74,1.6-14.16,6.63-20.81,10.59-5.55,3.3-11.44,6-18,6.52-4.11.31-9.42-.19-13-2.7a13,13,0,0,1-3.15,7.36c-3.48,3.6-9,3.15-12.84.43a11.67,11.67,0,0,1-2.79-2.8,11.21,11.21,0,0,1-2.4,6.5c-6.38,7.53-15.81,2-21.43-3.49a9,9,0,0,1-7,1.63c-7.39-.95-11.79-7.82-13.56-14.46-1.11-4.16-1.38-8.47-2-12.71a42.84,42.84,0,0,0-1.56-7.11c-.79-2.35-2.23-4.33-2.9-6.7-.59-2.09,2.1-2.77,3.45-1.78,4.4,3.22,5.21,10.29,5.87,15.32.87,6.54,1.39,13.74,5.72,19.09,3,3.7,10,6.31,10.82-1,.39-3.51-.11-7.33-.31-10.84-.48-8.45-2.17-17.09-2.15-25.52,0-1.71,2.72-1.94,3.21-.38,3.27,10.44,3.77,22.93,4.18,33.81a19.07,19.07,0,0,1-.34,4.45,3.44,3.44,0,0,1,.54.49c2.09,2.32,4.53,5.48,7.7,6.3,5.2,1.34,5.8-3.86,5.9-7.72.19-7.16.08-14.49,1.08-21.6.25-1.77,3.48-2.57,3.8-.45,1.11,7.34.86,20.51,7.69,25.44,3.15,2.27,6.37.27,7.34-3.06a34.66,34.66,0,0,0,.78-7.48l1-16.72c.32-5.35.32-11,.19-16.4-.12-5-.92-10.75-5.17-14-5.42-4.15-10,2-11.33,6.94-.85,3.14-.09,6.59-1.16,9.66-.56,1.6-2.13,2.47-3.35,1-.93-1.14-.37-4.55-.51-6-.41-4.16-1.67-8.22-5.45-10.5a9.5,9.5,0,0,0-13.32,4c-1.09,2.12-5.28,1.72-5.77-.69a8.62,8.62,0,0,0-11.16-6.73c-5.11,1.44-7.31,5.83-10.52,9.54a13.31,13.31,0,0,1-8.42,4.23c-4.28.4-5.87-1.56-7.46-5.06-2.17-4.8-6-9.18-8.55-13.93A147.33,147.33,0,0,1,70.8,80.27c-2.68-6.85-4.44-14-6.89-20.89C62.53,55.47,62,49.18,56.74,48.88a2,2,0,0,0-.88.1c-.79.32-1,1.33-1.06,2.19-.27,4.06.71,8.15,1.08,12.16a92.85,92.85,0,0,0,2.65,14.15,231.17,231.17,0,0,0,9.25,27.39c2.32,5.92,5.13,11.65,6.92,17.77,2,6.76,1.88,12.25.68,19-1.5,8.42-1.84,17.57-2.16,26.12a84.45,84.45,0,0,0,2.24,24.79,54.06,54.06,0,0,0,4.35,11.51c1.53,2.9,3.47,5.22,3.85,8.53.23,2-2.51,2.67-3.89,2l-.2-.11c-.44,4.36-2.1,9-2.9,12.63-1.71,7.87-2.72,16.68-5.88,24.1-.91,2.13-5,2.19-4.89-.61.35-7,2.79-14.18,4.47-21L73,219c.69-2.8,1.83-5.76,2.25-8.69-2.35-3.43-3.79-7.9-4.9-11.44a75.29,75.29,0,0,1-3.19-19.48,121,121,0,0,1,1.52-22.9c1.26-8.31,2-16.44,1.35-24.89-.46-5.58-2.5-11.1-4.57-16.25-3.15-7.84-6.31-15.62-8.85-23.69a197.37,197.37,0,0,1-6.29-24.8C49.14,60.34,47.9,51.09,52,45.26Z"/><path class="cls-2" d="M98.6,238.67c7.22-2,14.94-1.06,22.27-2.67,2-.43,3.9,1.77,2.2,3.39a16.51,16.51,0,0,1-8.69,4,28.1,28.1,0,0,0,3.48,1.14,53.71,53.71,0,0,0,15.88,1.16,61,61,0,0,0,15-2.87c4.17-1.36,8.51-4.29,12.91-4.49a.84.84,0,0,1,.8,1.25c-1.93,3.89-7.78,5.93-11.61,7.38a63.54,63.54,0,0,1-17.07,3.85,72.24,72.24,0,0,1-16.78-.7c-2-.3-4.33-.58-6.57-1.1,1.93,3,2.95,6.29,1.45,9.54a2.29,2.29,0,0,1-3.61.84c-2.13-2-2.51-4.65-4-7.14-1.78-3-4.84-5.63-7.31-8.11C95,242.21,96,239.37,98.6,238.67Z"/><path class="cls-2" d="M51.59,240.22c5.67,5,10.23,10.05,17.14,13.48A80,80,0,0,0,81,258.4c1.65.5,3.32.86,4.91,1.37a13.55,13.55,0,0,1-1-7.77c.3-1.5,2.69-1.26,3.11,0,.93,2.78,3.47,5.1,5.29,7.36a26.47,26.47,0,0,0,6.38,6.22c3.93,2.43.92,6.81-3,6.25a22.63,22.63,0,0,0-8.89.49c-2.59.66-4.62,1.77-7.31,1a2.57,2.57,0,0,1-2-3.12c.86-2.63,3.26-4.1,6.21-4.87a56.51,56.51,0,0,1-7.85-2.5,75.27,75.27,0,0,1-12.39-5.42c-6.05-3.46-13.45-8.88-14.91-16.14A1.2,1.2,0,0,1,51.59,240.22Z"/><path class="cls-4" d="M433.93,150.37c.56-2.39.88-4.88,1.29-7.14a146.22,146.22,0,0,0,2-14.67c.81-10.18.89-20.48-1.13-30.52-.28-1.4-2.63-1-2.68.33-.4,9.77-.27,19.54-1.33,29.27-.56,5.11-1.24,10.22-2.2,15.27-.82,4.34-2.79,9.11-2.14,13.52a1.81,1.81,0,0,0,3.26.78,14.17,14.17,0,0,0,1.95-3.6c5.6,3.1,9.06,7.08,10,13.87a76.33,76.33,0,0,1-.12,21.69,52.11,52.11,0,0,1-6.58,18.77,47.87,47.87,0,0,1-6.93,8.45,105.16,105.16,0,0,0,1-11.44c0-1.49-2.4-1.69-2.79-.33-4,13.85-7.27,27.89-12.28,41.43-2.62,7.09-5.5,14.07-8.8,20.87-2.91,6-6.39,11-10.13,16.42-1.63,2.38,1.73,4.32,3.75,3.32,5.82-2.87,8.61-9.63,11.3-15.18a226.56,226.56,0,0,0,9.11-21.41,184.6,184.6,0,0,0,7.37-25.14,2.41,2.41,0,0,0,.59-.16c6.45-2.77,11.42-10,14.6-16a60.93,60.93,0,0,0,6.68-23.88C450.63,172.89,449.41,152,433.93,150.37Z"/><path class="cls-4" d="M293.22,281.48c-6.68,2.4-12.76,6.46-19.38,9.12a193,193,0,0,1-21.31,7c-14,3.84-28.36,6.59-42.44,10.27-12.42,3.25-24.78,7.32-36.29,13.06-11.14,5.54-22.74,12.77-29.07,23.79-.62,1.09.87,1.77,1.68,1.15,10.67-8.15,20.9-16.16,33.24-21.71,12-5.4,24.76-8.94,37.54-12,13.78-3.31,27.7-6.05,41.32-10a194.3,194.3,0,0,0,18.78-6.37c6.32-2.53,13.79-5.26,18.8-10C298.14,283.89,295.8,280.55,293.22,281.48Z"/><path class="cls-4" d="M562.18,339.83c-3-4.85-8-8.81-12.08-12.67A168.35,168.35,0,0,0,536,315.23a100.48,100.48,0,0,0-31.56-16.31c-13-3.91-26.58-5.92-39.72-9.46-13.35-3.59-26.45-8-39.74-11.74-1.25-.35-2.19,1.34-.94,2,23.33,12.51,49,16.82,74.29,23.53a89.88,89.88,0,0,1,33.47,16.86c4.59,3.65,8.9,7.6,13.14,11.65s8,8.79,12.92,11.91C560.3,345.22,563.75,342.41,562.18,339.83Z"/><path class="cls-4" d="M324.12,289.58c-1.44-2.74-4.29-4.48-6.53-6.57-2.46-2.31-4.81-4.72-7-7.26a108.29,108.29,0,0,1-11.95-16.66c-7.15-12.23-12.82-26.63-13.79-40.86-.13-1.9-2.92-1.77-3.17,0a35.17,35.17,0,0,0-.33,5.12c-10.64-4.67-12.37-19.87-13.68-30.05a105,105,0,0,1-.89-16.87c.21-6.26,1.74-10.3,6.39-13.48a25.44,25.44,0,0,0,2.34,5.65c1,1.77,4.18,1,4.23-1,.12-4.83-1.65-9.74-2.62-14.46q-1.82-8.89-2.9-17.9c-1.31-10.92-1.06-22-2.43-32.9-.21-1.68-3.19-2.37-3.55-.42-2,11.07-.9,23.17.36,34.27q.89,7.83,2.31,15.59c.39,2.13.73,4.36,1.16,6.58-4.69.52-8.35,4.83-10,9.24-2.8,7.61-1.64,17-.68,24.82,1.73,14.07,4.24,31.06,19.21,36.55a3.08,3.08,0,0,0,1.15.2c1.54,11.11,7,22.47,12.13,31.55a113.83,113.83,0,0,0,12.93,18.27c4,4.58,9.05,11.42,14.94,13.4A2,2,0,0,0,324.12,289.58Z"/></svg>