<svg id="Layer_2" data-name="Layer 2" xmlns="http://www.w3.org/2000/svg" viewBox="0 0 700 291.03"><defs><style>.cls-1{fill:#c2db62;}.cls-2{fill:#0048d3;}</style></defs><title>travel</title><path class="cls-1" d="M230.28,74.42c-8.87-1.19-18.6.84-27.49,1.6-9.52.81-19.07,1.49-28.56,2.6-16.89,2-32.71,6.28-47.49,14.8-13.15,7.57-24.92,17.26-36.41,27.1-5.93,5.08-11.81,10.22-17.83,15.19s-13.33,9.26-18.63,15c-1.87,2,.67,4,2.77,3.18,6.77-2.65,12.85-8.27,18.46-12.77s11.23-9.31,16.79-14c11.55-9.8,23.18-19.67,36.25-27.41,14.91-8.83,30.84-13.32,48-15.13,8.87-.93,17.77-1.51,26.66-2.21s19-.16,27.49-2.79C232.78,78.75,233.35,74.83,230.28,74.42Z"/><path class="cls-1" d="M368.47,120.36c-.55-5.1-1.38-10.19-2.1-15.26-.54-3.78-1.13-7.56-3-11-2.07-3.78-5.42-6.79-8.38-9.85-5.49-5.69-10.41-13.46-19.17-12.71-4.77.41-9.44,1.23-14.24,1.32-4.26.08-8.71-.36-12.84.83a18.73,18.73,0,0,0-13.62-6.12c-12.07-.15-22.83,9.94-34.79,4.84-5.12-2.18-9.84-3.24-15.23-1.14-4.51,1.76-8.23,5-8.54,10-.07,1.09,1.52,1.46,2.2.81,3.57-3.42,7.56-7.05,12.87-6.63,4.89.39,8.79,4.24,13.83,4.76,9.55,1,17.65-4.95,26.77-6.45C305,71.71,310.11,86.38,315.16,95.4c3.24,5.8,6.65,11.53,9.67,17.44a56.11,56.11,0,0,1,3.9,9.21c1.9,6.27-.92,11.59-8.25,10.11-3.8-.77-6.92-3.54-9.38-6.4a64.57,64.57,0,0,1-11.57-20.5c-1.77-5.14-2.25-11.39-9.21-10.32a33,33,0,0,0-11.23,4.27c.66-.93,1.34-1.86,2-2.84,1.65-2.38-1.71-3.95-3.6-3.19-11.77,4.74-8.23,24.23-9.22,33.88-.64,6.33-1.6,18.37-8.15,21.5-2.59,1.24-5.85,1.4-8.67,1.56-1.08.06-2.06,0-3,.06a29.38,29.38,0,0,0-.26-4.79c-1-7-2.65-13.81-2.73-21,0-3.33,0-6.68.31-10,.29-3.48,1.21-6.9.17-10.3a1.94,1.94,0,0,0-3.09-.72c-5.17,5.9-4.57,17.34-3.92,24.68.76,8.52,5.15,18,3.44,26.45-1.68,8.31-10.25,11-17.51,12.55-5.62,1.18-8.75-3-11.83-7.06-2.05-2.72-4.38-8.2-1.47-10.65a17.66,17.66,0,0,0,.85,1.82c1.66,3.07,5.8,8.41,9.9,7.42a3.07,3.07,0,0,0,2.48-2.59c.26-2.08-1.77-3.57-3.05-4.93a38.07,38.07,0,0,1-4.76-6.12c-1.16-1.88-1.17-4.69-2.12-6.22-2.52-4-8.84-1.16-12.66-.7-5.09.6-10.1,1.7-15.18,2.43-11.59,1.67-21.31-2.31-32.32-5-1.24-.3-2.56,1.18-1.41,2.18a44.48,44.48,0,0,0,10.49,6.93L162.1,146A95,95,0,0,0,151,156.16a172.65,172.65,0,0,0-18.52,24.28c-12,18.38-23,37.13-38.08,53.26a1.45,1.45,0,0,0,1.88,2.16c17.51-11.7,27.81-30.33,39-47.67,5.51-8.54,11.26-17,18-24.64A94.49,94.49,0,0,1,164.2,153c2.35-1.91,5.64-3.55,8.23-5.62a39.43,39.43,0,0,0,9.58.67,149.41,149.41,0,0,0,16.06-2.16c2.3-.37,4.95-.4,7.57-.58a10.25,10.25,0,0,0-2.11,4.79c-.88,5.34,2.57,9.7,5.79,13.53,2.75,3.28,5.94,8.82,10.65,9.05s10.33-1.68,14.6-3.36a25.32,25.32,0,0,0,6.72-3.85,2.75,2.75,0,0,0,1.3,1.17c10.14,5,23,4.68,30.66-4.56,3-3.63,5.21-9,2.93-13.52a8.69,8.69,0,0,0-4.72-4.15c.1-.27.21-.55.3-.83a76.44,76.44,0,0,0,3.79-24.2c0-3.64-.37-7.39,0-11a70.59,70.59,0,0,1,10.38-5.43c.93-.37,5.06-2,5.43-1.71.75.5,1.28,3.75,1.68,4.79a88.68,88.68,0,0,0,11,20.72c3.85,5.22,8.64,10.19,15.25,11.53,5.61,1.14,9.94-.49,14.27-4,6-4.94,1.14-15.06-1.5-20.69-2.41-5.14-5.22-10.1-8-15a35.45,35.45,0,0,1,3.94-.24c6.14.21,13.7,9.89,14.64,15.59s1,10,5.92,13.82c4.23,3.28,10.52,4.24,15.27,1.63a2.56,2.56,0,0,0,2.7-.68C368.81,126.13,368.82,123.66,368.47,120.36Zm-98.28,34.17c-.73,3-3.24,5.52-5.75,7.12-5.75,3.69-12.82,3-18.85.41a3.23,3.23,0,0,0-.8-.22,19.1,19.1,0,0,0,3.18-7.07c3.66,1.21,9.15.45,12.09-.2a14.86,14.86,0,0,0,8.32-4.84C269.76,150.88,270.83,151.9,270.19,154.53Zm79.32-40.71c-.14-5.16-1.71-8.56-5.15-12.43-2.94-3.31-6.2-6.78-10.3-8.63a12.94,12.94,0,0,0-5.91-1.25c-2.06.1-4.82,1.65-7.11,1.71l-.87-1.55c-2.63-4.71-5.23-10.13-8.59-14.62,4.82,1.73,10.67,1.52,15.52,1.37,3.29-.1,7-1.12,10.24-.89,3.88.28,7,5.13,9.46,7.66,5.42,5.67,10.82,10.33,12.31,18.34,1.19,6.38,3.79,14.53,2.93,21.16l-.29,0C353.33,126,349.72,121.85,349.51,113.82Z"/><path class="cls-1" d="M211.21,86.23c-6,1.92-11.08,11.36-6.49,16.75a2.7,2.7,0,0,0,4.63-.55c1-2.17,1.06-4.4,1.83-6.61s2.21-3.86,3.24-5.88A2.66,2.66,0,0,0,211.21,86.23Z"/><path class="cls-2" d="M636,128.91a48.31,48.31,0,0,1-12.26,8c-4.1,1.88-10.72,2.9-13,7.3a2.41,2.41,0,0,0,1,3.4c4.26,2.07,9.87.07,14.67-2a52.64,52.64,0,0,1-7,9.77,64.12,64.12,0,0,1-16.71,12.42c-12.53,6.64-28,9.65-41.4,3.73-1.46-.65-2.93-1.37-4.36-2.19,7.59-7.26,12.15-16.56,5.95-26.21-4.59-7.14-13.84-8.52-20.6-3.59-7.52,5.47-8.24,14.82-4.93,22.94a34.46,34.46,0,0,0,4,7.23,64.56,64.56,0,0,1-10.23,4.95c-12.91,4.65-27.45,5.47-41,3.92-6-.69-12.19-2.13-17.44-5.25A27.74,27.74,0,0,0,479,165.1c3-6,3.2-15-3.35-18.69-5.46-3.12-13.3-1.11-17.21,3.6-5.21,6.26-3.94,14.8.36,21.14.28.41.58.81.88,1.21l-1.1.52c-11.64,5.33-25.06,7.82-37.8,8.16-30.16.8-58.21-10.87-81.5-29.56-1.35-1.08-4.35.28-3,2.05,22.24,28.41,61.92,39.45,96.73,34.72,9.88-1.34,22.75-4.12,32.76-10a45.32,45.32,0,0,0,15.08,6.86,93.81,93.81,0,0,0,56.26-3.31,65,65,0,0,0,10.58-5.42c12.25,10,30.76,12.18,45.78,8.21a80.68,80.68,0,0,0,31.06-16.35,61.78,61.78,0,0,0,8.25-8.33,36.54,36.54,0,0,0,.8,7.14c1,4.74,8.37,3.93,9.78,0,2.69-7.55,2-15.61,2-23.47,0-6.39,1.59-12.32,1.35-18.76,0-1.19-.23-2.58-1.26-3.18-1.51-.88-3.25.64-4.38,2A54.56,54.56,0,0,1,636,128.91ZM466.63,168.19c-3.55-4.19-6.2-10-3.36-14.48a7,7,0,0,1,7-3.05c4.17.94,4,6.13,2.82,9.36A18.56,18.56,0,0,1,466.63,168.19Zm83-4.4a20.6,20.6,0,0,1-3.91-5.65c-1.49-3.25-1.83-7.24.21-10.35s6.16-4.57,8.63-1C558.66,152.78,555.22,158.82,549.63,163.79Z"/></svg>