<svg id="Layer_2" data-name="Layer 2" xmlns="http://www.w3.org/2000/svg" viewBox="0 0 700 372"><defs><style>.cls-1{fill:#c2db62;}.cls-2{fill:#0048d3;}</style></defs><title>work</title><path class="cls-1" d="M600.72,233.88c-14.35-5.45-30.5-5.85-45.5-8.92-15.63-3.21-30.78-8-44.73-15.86s-26.59-18-41.13-24.88a82.78,82.78,0,0,0-20.72-6.76,57.57,57.57,0,0,0-10.15-1.08,50.75,50.75,0,0,0,15.11-8c10.76-8.33,14.65-22.39,25.39-30.71,10.12-7.84,23.45-12.11,28.76-24.83a19.86,19.86,0,0,0,1.56-7.78c0-4-1.57-7.85-.65-11.88,1.22-5.32,4.3-10.67,1.48-16-1.9-3.63-5.74-5.46-9.69-5.69,0-5.19-3.81-9.49-8.68-11.77-7.38-3.45-15.44-5.38-22.87-8.83s-14.17-8-22-10.15C442.16,39.31,433,38.05,430,43.31a.56.56,0,0,0,.35.84c5,1,9.95-.08,15,1.67,6.2,2.14,11.78,6.07,17.62,9A161.22,161.22,0,0,0,479.56,62c4.64,1.71,15.67,3.84,13.19,11,0,0,0,0,0,.07a20.8,20.8,0,0,0-7.55,7.47,41.61,41.61,0,0,0-9.64-8.18c-5.84-3.74-11.89-7.17-17.89-10.65S444.73,53,437.77,52c-.78-.11-1.76.56-1.21,1.41,2.48,3.79,6.91,6.14,10.59,8.65,4.29,2.91,8.7,5.66,13,8.47,7.2,4.65,19.27,9.42,22,18.39,3.19,10.41-5.84,14.81-12.6,20.09-3,2.33-4.92,5.28-7.16,8.29-1.49,2-2.59,3.67-5.16,2.91a7.7,7.7,0,0,1-2.64-1.56c4.69-4.83,9.66-9.52,11.5-16.24,3.12-11.42-5.39-18.49-15.11-22.06-13.14-4.84-25.48-9.49-35.7-19.51-2.52-2.47-7,1.09-4.3,3.86A75.93,75.93,0,0,0,435.68,81c7.6,3.22,22.93,5.18,24.29,15.19,1.43,10.54-10.71,18-16.37,25.27a27.57,27.57,0,0,0-3.21,5.14c-1,2.21-1.19,4.58-2.09,6.78-2.23,5.45-9.67,4.13-14.82,2.52-.42-5.08-1.33-10.1-4.57-14.23a28.69,28.69,0,0,0-2.55-2.84,10.24,10.24,0,0,0,4.57-2.89l.78.81c1.22,1.31,1.85,3,2.93,4.34,1.88,2.41,6.76,1.31,5.83-2.21a12.05,12.05,0,0,0-3-4.77c3.44.86,7.94,1.13,10.55-1.61a2.13,2.13,0,0,0-1.09-3.65c-2.77-.47-5.5.36-8.27-.12a32.49,32.49,0,0,1-4.42-1.09c.07-1.17,0-2.34,0-3.52-.13-3.1.31-5.47-1.89-7.84-1.1-1.18-3.06-.84-4.19,0-3.2,2.42-1.79,6.35-1.72,9.84.09,4.33-1.63,6.1-5.05,8.39a2.71,2.71,0,0,0-.36.29,16.77,16.77,0,0,0-6.95-2.06,1.15,1.15,0,0,0-.91,2c3.63,3.81,8,6.55,10.69,11.26,3.2,5.6,2.49,13.07,2.64,19.31.13,5.4.33,10.92-.65,16.26-.91,5-3.64,8.35-5.56,12.68a48.88,48.88,0,0,0-7.71,1.85,38.17,38.17,0,0,0-11.91,6.46c-2.24,1.82-3.41,4-6.43,4-2.63,0-4.88-1.27-7.53-1.5-5-.45-8.68,1.85-13,3.84-4.06,1.85-8.19-1.91-12.66-2.25-7-.54-12.86,3.56-17.8,8.22-3.37-1.2-7.51-.65-10.79.38a19.58,19.58,0,0,0-12.23,11.2c-1.94,4.71-2.59,10.12-3,15.43-5.89,4.06-11.14,9.29-16.54,13.92-6.48,5.55-13,11-19.73,16.29C257,263,243,273.39,228.27,282.94c-14.27,9.27-28.9,17.95-44,25.83Q173,314.67,161.39,320c-7.95,3.65-16.15,6.76-23.78,11.05-3.37,1.89-.84,6.32,2.6,5.45,16.88-4.23,33.14-13.13,48.53-21A472.59,472.59,0,0,0,234.16,289a444.46,444.46,0,0,0,41.28-30.49q9.73-8.2,19-16.89c3.9-3.66,8.18-7.46,11.9-11.61-1,9.15-2.16,18.3-3.28,27.44-1.54,12.64-5.57,29.7,5.32,39.51a19,19,0,0,0,9,4.59c1.36,7.55,8,11.62,15.41,13,10.74,2,22.08,1.86,33,2.6,4.07.28,8.69,1.17,12.31-1.22,3-2,4.38-5.48,4.55-9a22.49,22.49,0,0,0-5.54-15.39c11.34,5.29,29.26.27,33.1-11.53a14.17,14.17,0,0,0,10.5,3.42c8-.34,13.83-5.7,17.24-12.39,2.32,4,6,7.57,8.49,11.32a166.7,166.7,0,0,1,10.34,17.44c3,6,5.8,12.15,8.43,18.33s4.91,13.35,9.41,18.65c1.81,2.14,6.66,2,6.56-1.61-.21-7.44-3.72-14.54-6.63-21.24a190.67,190.67,0,0,0-9.11-18.45,117.05,117.05,0,0,0-12-17.7c-3.77-4.46-7.85-9.71-13.4-11.91.15-.5.3-1,.42-1.51a53.38,53.38,0,0,0,1.06-5.65c6.26,1.18,12.55-.07,18.43-2.58,4.5-1.92,14.59-6.9,14-12.7-.18-1.65-1.58-2.32-3.11-2.1-2.6.39-3.73,1.93-5.67,3.62a34.76,34.76,0,0,1-7.44,5c-4.89,2.42-10.28,3.31-15.66,3.88.16-2,.29-3.93.41-5.88,5.63.29,11.19-2.72,15.15-6.56s9-10.95,6.35-16.41c-.9-1.83-3.49-1.2-4.53,0-1.41,1.66-1.63,3.91-2.47,5.9a20.41,20.41,0,0,1-4.13,6.26c-2.87,3-6.33,4.42-10,5.78.5-5.73,1.19-11.73.28-17.3-.34-2.08-3.66-1.66-4.23,0-3,8.73-2.53,19.19-3.57,28.33-.93,8.17-3.25,20.12-12.74,22.46-11.24,2.78-12.23-11.19-13.73-18.72-1-5.2-2.17-10.38-3.26-15.57a79.06,79.06,0,0,0-1.91-7.72c-.48-1.5-2.33-4.42-1.74-6.08.42-1.19-1.36-1.48-2-.73-2.95,3.65-1.28,9.76-.61,14,1.14,7.22,2.26,14.45,3.52,21.65.78,4.46,2,9,4.13,12.66a2.73,2.73,0,0,0-1.51.73c-5.4,5.26-10,10.34-18.33,9.72-4.77-.35-10.31-2.25-11-7.48-.5-4-.7-8.05-1-12.07-.64-7.39-1.24-14.87-2.59-22.17-1-5.67-3-14.4-8.42-17.45a.74.74,0,0,0-1.1.57c-.44,4.27,2.27,8.9,3.09,13.15,1,5.17,1.06,10.47,1.23,15.72s.5,10.52.8,15.78c.23,4-.19,9.07,1.84,12.78a3.06,3.06,0,0,0-3.86-.66c-2.85,1.72-4.15,4.2-7.57,5.15a21.32,21.32,0,0,1-10.6-.08c-9.32-2.39-9.09-10.31-9-18.32.06-8.29.13-16.59.16-24.88,0-6.71.24-14.53-4.07-20.11-1.25-1.61-5-.89-4.08,1.55,3.71,10.2,2.22,20.39,1.55,31-.54,8.57-3,19.69.93,27.85a3.42,3.42,0,0,0-.9,1.17c-5.66,12.08-21.25,8-24-3.73-2.5-10.63.71-23.08,2-33.7,1.44-12.29,2.21-25,4.67-37.14,1-5.17,3.28-9.37,8.12-11.81,4.17-2.1,8.14-1.15,12.51-1.83a1.71,1.71,0,0,0,1.23-1.08l.51-.32c4.16-2.71,6.9-6.41,12.38-6.12,4.47.23,7.42,4.49,12,4,4.76-.49,8-4.92,13-5,4.56-.08,8,3.59,12.78,1.88,4.28-1.55,7.08-5.89,10.92-8.24a32.11,32.11,0,0,1,13.69-4.63c3.34-.31,6.59.79,9.9.62,4.75-.24,7.76.85,12.38,1.51,5.48.78,11.07.82,16.42,2.43A97.06,97.06,0,0,1,472.71,195c13.27,8,25.29,18,39,25.21,13.21,7,27.67,11.69,42.23,14.86,14.72,3.21,30.88,6.53,45.93,4.64C602.68,239.34,603.48,234.93,600.72,233.88ZM338,292.42a22.35,22.35,0,0,0,8.8,3.86,7.23,7.23,0,0,0-1.63,7.35,3.1,3.1,0,0,0,3.65,1.83,2.67,2.67,0,0,0,2.06-3.26,1,1,0,0,0-.1-.25s0-.09,0-.17,0-.38,0-.5.08-.27.12-.39.23-.44.25-.48a1.26,1.26,0,0,0,.1-.18l.2-.22c.58-.67-.11.13.35-.34a6.54,6.54,0,0,0,1.17-1.52,2.53,2.53,0,0,0,.27-1.16h.82c3.58-.06,9.91-1.16,13.65-4,3.73,3.28,6.67,7.34,6.69,12.61,0,4-2.39,4.58-5.85,4.36s-7-.45-10.45-.67c-6.32-.41-12.63-.83-18.95-1.21-5.62-.34-12.29-1.21-14.93-6.47A20.66,20.66,0,0,0,338,292.42Zm82.35-119.19a2.32,2.32,0,0,0-.53.22c5.32-8.12,4.61-22,4.09-30.63a28.05,28.05,0,0,0,6.07.7c1.35,5.53,3.45,11,4,16.7,0,.55,1,.71,1.1.13,1.37-5.61,1.91-11.74-.35-17.21.54-.09,1.08-.2,1.61-.32,5.71-1.34,7.67-4.33,9-9.74a24,24,0,0,1,4.92-9.46,12.2,12.2,0,0,0,7.61,3.49c4.59.28,7.89-2.62,10.52-6.06,1.75-2.28,3.14-4.67,5.33-6.59a77.15,77.15,0,0,1,6.73-4.71l.58-.43a10.44,10.44,0,0,0,4.2,6.39,2.7,2.7,0,0,0,2.56,0,2.81,2.81,0,0,0,.91-.81,2.08,2.08,0,0,0,0-2.28c-1-1.6-2.1-3-2.44-4.91a29.19,29.19,0,0,1-.27-3,18.11,18.11,0,0,0,3.53-7,17.77,17.77,0,0,0-.3-10.3,3,3,0,0,0,.84-.78c1.77-2.51,3.33-5.63,6.06-7.26,3.26-1.94,7.24-1.32,7.76,3,.35,2.88-1.49,6.3-2.07,9.09a22.06,22.06,0,0,0,0,8.22c1.25,7.83-.28,13.49-6.11,19.1-4.87,4.69-11,7.66-16.77,11.14a50.9,50.9,0,0,0-13.7,11.8c-4.18,5.24-7.35,11.25-11.83,16.26a42.31,42.31,0,0,1-14.41,10.47C432.86,171.06,426.62,171.62,420.36,173.23Z"/><path class="cls-1" d="M436.28,48.17c-5-5.17-15.66-7.19-22.54-5.92a19.68,19.68,0,0,0-7.88,3.25c-3.17,2.27-3.84,5.2-6.13,8-2.63,3.25-8.62,1.42-12.38,2a14.73,14.73,0,0,0-8.11,3.86c-3.43,3.37-5.71,8.47-6.68,13.56-7.17,17.5-11.66,35.67-23,51.35-8.79,12.18-18.85,18.4-32.78,23.46C302.63,153,288.53,158.41,274.17,163a345.88,345.88,0,0,1-46.59,11.12,463.27,463.27,0,0,1-46.7,5.53c-14.22,1-28.51,1.5-42.6,3.77a125.55,125.55,0,0,0-22.9,5.74c-5.75,2.09-14.84,5.16-17.67,11A1.21,1.21,0,0,0,98.86,202c6.29-.36,12.54-4.53,18.48-6.55a121.16,121.16,0,0,1,20.6-4.89c14.49-2.24,29.18-2.59,43.79-3.45,31.27-1.83,61.76-8.11,91.62-17.49,13.34-4.19,26.46-9.23,39.65-13.86a138.63,138.63,0,0,0,22.52-9.91c6.87-3.87,12.42-10.15,17.14-16.49,10.4-14,17.88-31.9,21.44-49.47,2.89-5.31,4.91-12.66,9.35-16.67,5.34-4.83,13.15.44,18.92-3.05,5-3.05,4.92-9.42,11.26-11.32,7.56-2.27,13.55,3,20.69,3.62A2.5,2.5,0,0,0,436.28,48.17Z"/><path class="cls-2" d="M307.95,98.56a56.55,56.55,0,0,0-2.77,5.35c-.15-3.69-.36-7.38-.54-11.08-.49-10.63-.29-22.24-3-32.58-.53-2.06-4.27-2.15-4.72,0-2.17,10.45-1.44,22-1.42,32.59,0,5.95-.11,11.9.13,17.82-.11-2.8-9.21-9.9-10.22-5.07a3.71,3.71,0,0,0,.32,2.28c2.36,5.18,4.71,10.35,7.32,15.42,1.47,2.86,2.69,5.85,4.07,8.75,1.91,4,8.32,4.76,9.95,0,3.52-10.35,7.78-20.67,8.38-31.68C315.69,96.54,309.69,95.61,307.95,98.56Z"/><path class="cls-2" d="M348.45,85.94a41.15,41.15,0,0,0-5.56,9.49c-.44-4.88-1.1-9.77-1.36-14.54-.55-10.16-.09-20.71-1.68-30.75-.43-2.7-5.21-2.46-5.8,0-2.34,9.79-1.92,20.77-1.55,30.77.13,3.43.17,7,.33,10.67a27.1,27.1,0,0,0-3.64-3.44c-2.07-1.59-5.72-.34-5,2.63,1.21,5.15,4.09,10.13,6.23,15,1.6,3.62,5.67,20.46,12.12,15.28,4.6-3.7,5.57-10.63,7.3-16,1.89-5.82,4.22-11.46,5-17.57C355.21,83.9,350,84,348.45,85.94Z"/><path class="cls-2" d="M498.85,138.5c-6.38,2.94-11.72,8.24-17.35,12.37-4.95,3.63-12.58,7.18-15.75,12.56a2,2,0,0,0,1.9,2.93c6.88-.08,14-5.28,19.6-8.89,6-3.92,13-8.1,16.91-14.28C506.35,139.74,501.78,137.15,498.85,138.5Z"/><path class="cls-2" d="M512.25,174.91c-5-1.36-10-1.28-15.06-1-4.94.28-10.27.13-15,1.68a2.19,2.19,0,0,0,0,4.28c4.79,1.39,10.06,1.07,15,1.18,5.11.11,10.15,0,15.06-1.5A2.37,2.37,0,0,0,512.25,174.91Z"/><path class="cls-2" d="M528.35,195.9c-9.3-4-19.54-4.71-29.52-5.64-3.42-.32-4,4.44-.79,5.34,9.39,2.66,19,5.55,28.83,5.23C529.42,200.74,531.24,197.13,528.35,195.9Z"/></svg>